<svg width="1024" height="1024" viewBox="0 0 1024 1024" fill="none" xmlns="http://www.w3.org/2000/svg">
<rect width="1024" height="1024" fill="#062161"/>
<path d="M631.175 651.409C634.802 656.043 638.579 659.132 644.654 659.863L647.342 660.115C647.459 665.56 648.493 669.86 650.382 674.95C646.731 675 641.387 672.231 638.674 669.903C632.947 664.989 631.669 658.598 631.175 651.409Z" fill="#E4B447"/>
<path d="M651.058 655.494L652.065 657.796C653.427 660.989 656.01 663.004 659.188 664.232C662.94 665.683 667.929 666.365 671.938 665.908L672.291 664.714C673.158 669.586 674.614 674.083 677.656 678.065L677.971 678.473L666.127 678.073C661.822 677.835 658.742 677.158 655.76 673.784C651.248 668.679 650.663 662.028 651.058 655.494Z" fill="#E4B447"/>
<path d="M713.82 582.76C720.889 586.209 727.35 590.366 732.637 596.257C733.123 596.798 734.307 597.882 734.506 598.577C734.94 600.092 733.326 604.779 732.847 606.519C728.89 620.896 724.323 633.609 714.963 645.499L711.669 644.043C709.499 648.793 708.737 653.503 707.22 658.438C704.837 666.19 700.002 673.985 692.091 676.958C689.571 677.905 687.499 678.756 684.962 677.59C679.913 675.268 677.77 670.256 675.741 665.462C678.823 664.766 681.263 663.364 683.75 661.482C687.486 658.653 690.546 655.123 693.473 651.49C709.548 631.537 710.491 606.971 713.82 582.76Z" fill="#E4B447"/>
<path d="M688.116 479.911C695.988 487.706 703.451 495.447 710.051 504.388C724.917 524.53 735.397 550.717 735.552 575.976L735.119 591.8C728.341 585.156 721.2 580.827 712.62 576.815C713.635 573.85 713.019 568.898 713.013 565.69C712.984 546.476 708.219 527.895 699.522 510.787C695.024 501.94 689.661 493.687 682.61 486.657L688.116 479.911Z" fill="#A71311"/>
<path d="M565.938 249.634C569.936 244.277 574.548 239.631 579.256 234.914C591.219 222.93 604.007 212.415 618.627 203.805C625.638 199.676 633.872 195.358 642 194.123C645.265 193.627 648.098 194.329 650.718 196.341C657.298 201.396 660.443 211.266 662.988 218.793C668.217 234.262 671.845 250.25 673.786 266.468C675.244 278.645 675.593 290.754 675.528 303.009C675.501 307.847 675.711 312.862 675.015 317.646L669.789 310.979C669.077 310.067 667.915 308.868 667.535 307.794C667.342 307.251 667.968 296.493 667.978 294.985C668.061 282.731 667.941 270.563 666.495 258.371C664.632 242.646 661.011 227.301 655.035 212.619C653.427 208.669 651.748 203.709 648.191 201.083C646.308 199.692 644.574 199.337 642.277 199.821C636.499 201.04 631.023 205.211 626.375 208.635C608.824 221.562 595.708 236.463 584.319 254.988L565.938 249.634Z" fill="#E4B447"/>
<path d="M368.818 314.272L363.696 319.698C362.439 314.532 362.181 309.363 361.935 304.071C361.629 297.513 361.515 290.949 361.843 284.389C363.078 259.707 368.466 233.809 378.189 211.036C380.18 206.373 382.563 200.494 386.496 197.127C389.097 194.901 391.65 194.393 394.976 194.736C401.493 195.409 407.455 198.353 413.216 201.288C428.619 209.134 442.988 219.377 455.394 231.413C461.269 237.111 466.452 243.429 471.549 249.815L471.268 249.95C465.186 252.776 457.8 253.987 451.408 256.14C447.639 249.172 443.471 242.459 438.636 236.169C430.602 225.718 420.548 215.847 409.965 207.996C406.391 205.346 402.658 202.61 398.304 201.416C395.512 200.65 392.916 200.827 390.467 202.421C388.33 203.812 386.676 206.65 385.398 208.83C378.441 220.706 375.072 235.186 372.755 248.649C370.333 262.717 369.205 276.755 369.55 291.039L370.329 304.545C370.482 306.222 371.298 309.435 371.01 310.979C370.875 311.706 369.296 313.554 368.818 314.272Z" fill="#E4B447"/>
<path d="M786.683 447.875C792.114 451.816 795.574 456.926 796.618 463.625C797.414 468.737 796.695 475.841 793.638 480.193C791.919 482.641 789.029 484.201 787.564 486.861C784.987 491.536 783.796 497.047 782.897 502.261C781.112 512.604 780.589 523.186 781.975 533.622C783.632 546.092 788.125 558.092 790.916 570.336C798.143 602.045 797.897 639.269 777.465 666.329C773.244 671.92 768.264 677.389 762.955 681.952L751.277 673.139L751.799 672.831C753.279 671.755 754.781 669.557 755.982 668.159C762.515 660.553 768.53 653.245 772.786 644.066C787.083 613.228 784.022 585.203 775.196 553.459C771.7 540.884 767.899 526.759 768.68 513.617C769.41 501.328 771.449 489.894 777.716 479.118C780.912 473.622 784.729 468.433 786.185 462.125C787.319 457.209 786.517 453.135 786.665 448.303L786.683 447.875Z" fill="#A71311"/>
<path d="M271.639 705.005L271.704 705.663C272.301 712.09 271.52 718.492 272.311 724.931C275.535 751.178 289.357 775.041 309.52 791.937C322.106 802.482 339.026 810.397 355.774 808.817C371.288 807.353 385.798 799.489 395.643 787.387C399.653 782.458 402.619 776.918 405.215 771.142C406.892 767.412 408.346 764.292 408.574 760.13C409.285 764.251 409.202 769.703 408.655 773.851C407.746 780.757 406.295 787.3 403.674 793.777C397.594 808.798 386.878 820.058 371.851 826.29C356.719 832.564 339.605 830.413 324.852 824.191C301.833 814.483 283.47 792.937 274.29 770.009C266.048 749.427 262.699 725.878 271.639 705.005Z" fill="#A96304"/>
<path d="M755.104 686.377C766.71 696.676 771.013 713.395 771.812 728.333C773.222 754.698 761.977 783.28 744.235 802.651C730.29 817.876 710.865 829.113 689.881 829.973C674.8 830.591 659.48 824.842 648.386 814.601C634.37 801.665 628.879 784.54 627.933 766.029C631.554 777.796 639.819 790.615 650.376 797.188C666.345 807.128 683.871 809.756 702.125 805.255C722.326 800.275 739.556 785.149 750.033 767.517C761.196 748.727 768.685 723.78 762.336 702.102C761.508 699.271 760.386 696.441 758.98 693.849C757.857 691.777 755.709 689.414 755.227 687.088L755.104 686.377Z" fill="#A96304"/>
<path d="M224.386 384.676C226.349 390.517 227.703 396.695 229.267 402.665L236.888 427.903C249.785 464.122 270.21 496.825 297.447 523.914C306.903 533.319 317.511 542.443 328.905 549.43L320.595 595.165L307.963 583.27C268.477 543.445 244.26 490.24 231.594 436.204C227.667 419.452 224.292 401.945 224.386 384.676Z" fill="#E4B447"/>
<path d="M751.277 673.139C744.6 669.055 737.782 666.556 730.317 664.396C742.913 657.326 751.843 648.254 757.813 634.933C767.438 613.454 764.285 590.798 758.343 568.813L749.514 537.953C743.713 513.585 743.791 486.802 755.232 463.999C758.783 456.92 764.578 448.577 772.499 446.052C777.667 444.404 781.994 445.414 786.682 447.875L786.665 448.303C786.517 453.135 787.318 457.209 786.184 462.125C784.729 468.433 780.912 473.622 777.715 479.119C771.449 489.894 769.41 501.328 768.679 513.617C767.899 526.759 771.7 540.884 775.196 553.459C784.022 585.203 787.083 613.228 772.786 644.066C768.529 653.245 762.515 660.553 755.982 668.159C754.78 669.557 753.279 671.755 751.798 672.831L751.277 673.139Z" fill="#E5001F"/>
<path d="M368.818 314.272C369.296 313.554 370.875 311.707 371.01 310.979C371.298 309.435 370.482 306.222 370.33 304.545L369.55 291.039C369.205 276.755 370.333 262.717 372.755 248.65C375.073 235.186 378.442 220.706 385.399 208.83C386.676 206.65 388.33 203.812 390.467 202.422C392.916 200.828 395.512 200.65 398.304 201.416C402.658 202.61 406.391 205.346 409.965 207.997C420.548 215.847 430.603 225.718 438.637 236.17C443.471 242.459 447.64 249.172 451.408 256.141C457.801 253.987 465.186 252.776 471.268 249.95L471.549 249.815L472.111 250.314C472.891 251.026 473.396 251.852 473.938 252.747L476.795 252.939C471.557 254.207 466.224 255.385 461.084 257.01C441.669 263.148 423.045 272.433 406.55 284.398C397.186 291.191 388.75 298.816 380.344 306.727C375.896 307.393 372.153 311.548 368.818 314.272Z" fill="#062161"/>
<path d="M394.129 206.188C395 206.02 395.726 205.892 396.601 206.11C401.396 207.304 405.814 211.302 409.505 214.385C424.273 226.726 436.614 241.007 446.227 257.698C431.224 264.582 416.597 272.581 403.275 282.358L375.598 305.822L375.313 304.411C374.398 299.788 374.593 294.814 374.522 290.108C374.173 267.092 377.171 244.147 384.694 222.351C386.44 217.292 389.014 208.675 394.129 206.188Z" fill="#E5001F"/>
<path d="M565.938 249.634L584.319 254.988C595.708 236.464 608.824 221.562 626.375 208.635C631.023 205.211 636.499 201.04 642.277 199.821C644.574 199.337 646.308 199.692 648.191 201.083C651.748 203.71 653.427 208.669 655.035 212.62C661.011 227.302 664.632 242.647 666.495 258.371C667.941 270.563 668.061 282.731 667.978 294.985C667.968 296.494 667.342 307.252 667.535 307.795C667.915 308.868 669.077 310.067 669.789 310.979L675.015 317.647C674.362 319.198 673.638 320.779 673.383 322.455C672.791 321.975 672.171 320.872 671.695 320.241L667.371 314.67C662.811 308.912 657.7 303.609 652.269 298.666C649.795 296.415 647.076 293.815 644.089 292.301C640.74 289.098 636.687 286.289 632.91 283.608C612.264 268.949 588.143 258.852 563.564 253.105C564.701 252.442 565.329 250.769 565.938 249.634Z" fill="#062161"/>
<path d="M642.379 204.312L644.188 204.15C645.655 204.903 646.546 205.695 647.467 207.071C650.009 210.861 651.307 215.691 652.765 219.974C660.516 242.76 663.289 265.682 663.164 289.686C663.142 293.832 663.439 298.59 662.603 302.651C653.813 293.668 643.285 286.045 632.935 278.961L622.103 272.17C611.569 266.137 600.409 260.788 589.089 256.386C598.415 241.889 608.742 229.626 621.65 218.215C627.915 212.677 634.505 207.345 642.379 204.312Z" fill="#E5001F"/>
<path d="M631.175 651.409C631.186 645.21 634.095 640.415 636.664 635.053C629.806 642.165 628.036 648.487 626.492 657.946C624.658 653.388 623.437 648.176 623.275 643.25C623.098 637.93 623.9 633.137 627.286 628.828C629.263 626.311 631.8 624.143 633.943 621.751C636.942 618.405 639.541 614.58 641.854 610.735C648.056 600.433 652.02 588.51 655.409 577.016C655.755 576.827 655.865 576.751 656.287 576.615C658.849 575.787 661.785 575.558 664.444 575.188C680.816 572.904 698.874 575.695 713.82 582.76C710.491 606.971 709.548 631.537 693.473 651.49C690.547 655.123 687.487 658.653 683.75 661.482C681.263 663.364 678.823 664.766 675.741 665.462C673.657 659.047 675.57 652.544 677.755 646.478C673.341 652.39 671.929 657.307 672.291 664.714L671.938 665.908C667.929 666.365 662.94 665.683 659.188 664.232C656.01 663.004 653.427 660.989 652.065 657.796L651.058 655.494C651.704 650.59 653.516 646.375 655.344 641.824C650.843 647.71 647.852 652.507 647.342 660.115L644.654 659.863C638.579 659.132 634.802 656.043 631.175 651.409Z" fill="#FEFEFE"/>
<path d="M623.196 745.937C621.265 757.594 620.638 769.51 622.958 781.171C624.415 788.501 626.873 795.148 629.9 801.951C618.651 808.315 605.997 813.028 593.668 816.83C546.278 831.445 496.178 831.431 448.465 818.168C435.436 814.546 421.511 809.446 409.72 802.735C412.713 795.122 415.381 786.845 416.604 778.751C417.445 773.182 417.546 767.666 417.508 762.049C429.346 767.043 440.995 772.565 453.476 775.858C467.809 779.641 482.443 782.55 497.273 783.387C512.942 784.27 528.899 782.499 544.25 779.401C562.541 775.708 579.88 770.185 596.608 761.863C605.942 757.22 614.229 751.156 623.196 745.937Z" fill="#E4B447"/>
<path d="M271.639 705.005C276.874 691.993 286.937 681.163 299.959 675.646C316.291 668.727 332.929 670.921 348.925 677.563C372.753 687.455 391.953 707.878 401.66 731.614C405.352 740.64 408.022 750.361 408.574 760.13C408.346 764.292 406.892 767.412 405.215 771.142C402.619 776.918 399.653 782.458 395.643 787.387C385.798 799.489 371.288 807.353 355.774 808.817C339.026 810.397 322.106 802.482 309.52 791.937C289.357 775.041 275.535 751.178 272.311 724.931C271.52 718.492 272.301 712.09 271.704 705.663L271.639 705.005Z" fill="#E4B447"/>
<path d="M330.205 732.246C336.113 731.798 341.197 733.003 346.618 735.244L346.438 735.649C339.262 733.711 331.568 733.024 324.326 735.02L323.805 735.166C319.114 736.407 315.4 738.709 311.704 741.793L311.261 741.688C315.794 735.887 323.224 733.342 330.205 732.246Z" fill="#7B4905"/>
<path d="M290.155 703.813C291.26 703.649 292.219 703.539 293.314 703.83C297.617 704.976 300.761 707.77 302.937 711.605C305.299 715.768 307.168 721.452 305.695 726.242C304.832 729.046 302.915 730.996 300.313 732.263C298.546 732.676 296.548 732.481 294.861 731.827C290.638 730.191 287.959 726.51 286.138 722.539C284.287 718.505 283.38 712.929 285.054 708.658C286.028 706.174 287.755 704.845 290.155 703.813Z" fill="#7B4905"/>
<path d="M290.077 704.938C291.122 704.739 292.332 704.772 293.345 705.105C297.34 706.418 300.673 710.425 302.563 714.046C304.402 717.57 305.422 722.041 304.087 725.902C303.262 728.289 301.872 729.204 299.665 730.252C298.694 730.291 297.689 730.334 296.739 730.099C293.05 729.188 289.642 725.515 287.895 722.224C285.851 718.372 284.25 713.625 285.679 709.309C286.445 706.996 287.955 705.919 290.077 704.938Z" fill="#E4B447"/>
<path d="M355.858 696.094C356.856 696.085 357.861 696.205 358.812 696.515C363.793 698.137 367.891 702.626 370.133 707.23C372.055 711.176 373.122 716.695 371.575 720.958L371.39 721.438L370.832 722.856C369.542 725.441 367.322 726.76 364.669 727.619C363.304 727.663 361.743 727.798 360.406 727.491C356.547 726.602 352.708 722.116 350.906 718.699C348.63 714.385 347.136 708.25 348.641 703.445L348.832 702.875L349.41 701.284C350.731 698.332 353.031 697.225 355.858 696.094Z" fill="#7B4905"/>
<path d="M355.232 697.323C357.093 697.324 358.521 697.501 360.267 698.149C364.292 699.642 367.609 704.058 369.336 707.906C371.056 711.742 371.838 717.472 370.109 721.455C369.208 723.53 367.257 724.756 365.244 725.567C363.828 725.605 362.195 725.622 360.832 725.217C356.847 724.031 353.841 720.139 351.976 716.585C349.965 712.754 348.518 706.872 349.975 702.606C350.898 699.907 352.759 698.525 355.232 697.323Z" fill="#E4B447"/>
<path d="M319.01 687.175C320.896 687.112 322.486 687.049 324.314 687.601C328.688 688.922 332.161 693.022 334.251 696.943C336.711 701.558 337.859 707.523 336.233 712.587C335.176 715.879 333.544 717.69 330.495 719.188C328.867 719.54 327.256 719.295 325.68 718.827C320.848 717.392 317.068 713.218 314.866 708.795C312.611 704.269 311.584 697.93 313.26 693.04C314.305 689.991 316.252 688.555 319.01 687.175Z" fill="#7B4905"/>
<path d="M318.886 688.301C320.808 688.2 322.628 688.068 324.456 688.81C328.757 690.558 331.996 695.217 333.834 699.337C335.608 703.312 336.749 708.584 334.958 712.75C334.133 714.668 332.217 716.197 330.313 716.929C329.167 717.217 327.888 716.974 326.75 716.728C322.585 715.825 319.256 712.392 317.06 708.903C314.316 704.542 312.915 698.751 314.236 693.698C314.986 690.832 316.448 689.715 318.886 688.301Z" fill="#E4B447"/>
<path d="M302.405 755.124L305.538 758.938C316.038 771.023 332.721 782.023 349.062 783.046C363.208 783.931 380.782 780.051 391.575 770.388C390.88 772.709 387.566 775.516 385.858 777.296C381.404 781.255 376.875 785.026 371.699 788.017C362.27 793.463 349.396 796.794 338.656 793.852L338 793.666C334.782 792.778 331.82 791.533 328.876 789.96C315.699 782.919 306.631 769.127 302.405 755.124Z" fill="#A96304"/>
<path d="M627.933 766.029L627.837 762.814C627.564 734.995 642.905 707.794 661.958 688.474C663.038 687.379 665.135 684.895 666.479 684.387C666.807 684.263 667.773 684.426 668.177 684.44L674.937 684.829C677.205 684.889 679.431 684.283 681.687 684.294C683.756 684.304 685.805 684.98 687.875 684.836C695.157 684.331 701.703 678.621 708.124 675.72C713.298 673.384 719.255 672.448 724.894 672.436C736.353 672.413 747.184 678.448 755.104 686.377L755.227 687.088C755.709 689.414 757.857 691.777 758.98 693.849C760.386 696.441 761.508 699.271 762.336 702.102C768.685 723.78 761.196 748.727 750.033 767.517C739.556 785.149 722.326 800.275 702.125 805.255C683.871 809.756 666.345 807.128 650.376 797.188C639.819 790.615 631.554 777.796 627.933 766.029Z" fill="url(#paint0_linear_102_103)"/>
<path d="M679.195 698.563C680.14 698.443 681.244 698.704 682.063 699.199C683.701 700.186 684.698 702.073 685.255 703.838L685.387 704.268C686.555 707.825 685.857 711.967 684.742 715.469L684.568 716C684.118 717.412 683.64 718.746 682.971 720.073C680.298 725.369 676.147 729.941 670.355 731.775L670.072 731.716C669.198 731.57 668.501 731.506 667.701 731.064C665.809 730.018 664.625 727.159 664.197 725.173C662.893 719.13 665.497 712.067 668.701 707C671.208 703.037 674.438 699.633 679.195 698.563Z" fill="#E4B447"/>
<path d="M741.82 703.256C743.028 703.207 744.599 703.384 745.719 703.859C748.365 704.983 750.754 707.625 751.716 710.307C753.056 714.043 751.744 718.182 750.124 721.624C747.521 727.151 743.8 731.839 737.925 733.995C736.204 734.012 734.491 734.035 732.872 733.357C730.684 732.441 728.691 730.076 727.948 727.839C726.48 723.411 727.691 718.475 729.737 714.445C732.511 708.982 735.82 705.174 741.82 703.256Z" fill="#000006"/>
<path d="M741.789 704.019C742.92 703.958 744.162 704.093 745.237 704.473C747.244 705.184 749.199 707.14 750.051 709.063C751.524 712.382 750.775 716.19 749.387 719.401C746.974 724.981 743.645 729.747 737.829 732.067C736.078 732.274 734.15 732.438 732.5 731.687C730.836 730.93 729.432 729.37 728.811 727.651C727.455 723.902 728.649 719.118 730.275 715.625C732.954 709.874 735.689 706.234 741.789 704.019Z" fill="#E4B447"/>
<path d="M715.154 685.657C716.647 685.581 718.108 685.477 719.545 685.979C721.837 686.779 723.888 688.475 724.936 690.69C726.756 694.536 725.774 699.029 724.285 702.82C721.671 709.475 718.066 714.211 711.395 717.113L706.021 717.086C704.727 716.296 703.325 715.525 702.361 714.328C700.137 711.571 699.973 708.046 700.468 704.678L700.573 704C700.768 702.692 701.007 701.484 701.47 700.238C704.13 693.101 708.292 688.813 715.154 685.657Z" fill="#000006"/>
<path d="M715.443 686.401C717.193 686.293 718.687 686.368 720.313 687.101C721.928 687.829 723.336 689.267 723.913 690.963C725.608 695.95 722.707 702.654 720.332 706.958C718.034 711.124 714.97 714.22 710.295 715.565C709.009 715.7 707.416 715.981 706.166 715.581C704.407 715.015 702.673 713.238 701.946 711.568C700.191 707.538 702.093 701.452 703.789 697.633C706.265 692.058 709.744 688.593 715.443 686.401Z" fill="#E4B447"/>
<path d="M731.67 754.45C731.761 758.288 731.618 761.908 730.371 765.568C726.636 776.533 719.577 785.074 709.227 790.459C705.932 792.173 702.676 793.215 699.112 794.183C690.728 796.46 680.63 794.668 673.18 790.354C670.089 788.564 667.768 785.907 665.361 783.322C667.575 783.299 669.849 783.766 672.065 783.921C674.963 784.123 677.949 783.999 680.85 783.84C695.553 783.034 709.221 776.312 720.087 766.609C724.278 762.867 727.945 758.643 731.67 754.45Z" fill="#A96304"/>
<path d="M665.362 783.322L664.541 782.75C665.5 781.257 664.711 777.421 664.709 775.625C664.708 773.225 664.846 770.719 665.16 768.336C665.611 764.918 666.698 761.57 667.948 758.375C671.658 748.887 678.133 740.23 686.488 734.382C692.599 730.105 699.953 727.549 707.458 728.977C714.37 730.291 721.357 734.952 725.185 740.879C728.057 745.326 730.029 749.426 731.67 754.45C727.945 758.643 724.279 762.867 720.088 766.609C709.222 776.312 695.553 783.034 680.85 783.84C677.95 783.999 674.963 784.123 672.065 783.921C669.849 783.766 667.575 783.299 665.362 783.322Z" fill="#E4B447"/>
<path d="M243.636 330.016C246.465 324.961 250.526 320.522 256.25 318.868L256.895 318.677C261.805 317.305 267.572 318.491 271.937 321.011C274.705 322.609 277.042 325.023 278.562 327.829L279.018 327.853C280.703 323.989 280.927 321.542 285.363 319.939C287.361 319.216 289.317 319.206 291.397 319.438L291.953 319.495C296.223 320.003 299.817 323.058 302.316 326.395C309.161 335.538 309.133 348.565 310.451 359.413L313.284 377.368C315.557 389.422 318.476 401.092 322.491 412.697C328.357 429.656 337.046 445.696 347.526 460.236C350.265 464.038 354.075 467.021 356.647 470.923C358.318 473.456 358.355 476.232 359.38 478.985C360.419 481.778 362.389 484.399 364.134 486.785C367.194 490.969 370.723 494.673 374.254 498.451C375.963 500.279 378.502 502.362 379.675 504.52C380.684 506.895 385.309 510.243 387.273 512.061C397.957 521.954 409.276 530.595 422.041 537.653C429.474 541.762 437.307 545.108 445.18 548.275C453.541 551.638 462.135 554.356 470.778 556.879L479.695 559.252C481.899 559.764 484.504 560.089 486.46 561.241C461.545 568.861 439.351 583.113 426.819 606.635C413.796 631.076 411.138 659.158 419.272 685.638C424.54 702.785 433.447 717.731 446.135 730.434C449.562 733.865 453.266 737.406 457.407 739.951L474.858 750.528C498.826 762.657 528.137 764.188 553.555 755.806C581.96 746.438 603.229 726.592 615.929 699.735C620.724 689.595 624.24 678.713 629.296 668.725L629.481 668.367C631.672 670.804 633.848 673.369 636.427 675.409C643.229 680.79 650.695 681.75 658.999 682.897C658.404 684.18 656.854 685.483 655.871 686.549L649.063 694.078C636.794 708.3 626.01 727.126 623.196 745.937C614.229 751.156 605.941 757.22 596.608 761.863C579.88 770.185 562.541 775.708 544.25 779.401C528.899 782.499 512.942 784.27 497.273 783.387C482.443 782.55 467.809 779.641 453.476 775.858C440.995 772.565 429.346 767.043 417.508 762.049C415.467 741.463 409.409 722.372 397.192 705.442C387.092 691.444 372.807 678.676 357.246 671.123C347.789 666.534 337.822 663.764 327.485 662.064C326.92 654.632 327.043 647.068 327.048 639.614C327.068 607.799 330.638 576.177 336.723 544.964C339.287 531.808 342.123 518.544 346.221 505.774C348.497 498.684 351.502 491.996 354.425 485.169C352.688 486.94 351.355 489.961 350.123 492.133C340.006 509.961 333.826 529.633 328.905 549.43C317.511 542.443 306.903 533.319 297.447 523.914C270.21 496.825 249.785 464.122 236.888 427.903L229.267 402.665C227.703 396.695 226.349 390.517 224.386 384.676L224.832 354.159C225.417 349.109 227.184 343.415 231.42 340.243C233.232 338.885 234.519 338.572 236.742 338.932C238.453 339.391 239.379 340.141 240.685 341.305L241.087 341.668C241.87 337.87 241.59 333.806 243.474 330.304L243.636 330.016Z" fill="#FEFEFE"/>
<path d="M270.153 323.464C270.986 323.527 271.867 323.623 272.664 323.884C274.779 324.579 278.367 327.896 278.954 330.147C279.434 331.991 278.593 335.467 277.518 337.063C275.943 339.403 273.591 339.951 271.02 340.492C269.381 340.3 267.738 340.072 266.292 339.22C263.995 337.868 262.589 335.61 262.031 333.022C261.543 330.757 262.244 328.936 263.485 327.046C265.086 324.606 267.484 323.998 270.153 323.464Z" fill="#E5001F"/>
<path d="M289.027 324.579L289.383 324.588C291.65 324.592 293.238 324.658 295.273 325.744C297.454 326.908 299.479 329.101 300.152 331.516L300.26 331.942C300.947 334.549 300.613 336.982 299.555 339.447C298.18 342.649 295.441 343.836 292.436 345.089C290.473 345.151 288.704 345.261 286.841 344.503C284.688 343.627 282.535 341.605 281.686 339.425C280.486 336.344 280.613 333.065 282.055 330.073C283.57 326.929 285.846 325.641 289.027 324.579Z" fill="#E5001F"/>
<path d="M243.637 330.016L242.703 335.506C244.016 332.747 245.428 329.331 248.546 328.224C250.924 327.379 254.572 327.223 256.866 328.294C258.62 329.112 260.052 330.803 260.595 332.639C261.445 335.509 261.721 339.489 260.188 342.165C258.523 345.069 255.983 347.179 252.696 347.974C250.36 348.54 247.452 348.271 245.422 346.992C242.145 344.926 240.097 341.141 236.743 338.932C238.453 339.391 239.38 340.141 240.685 341.305L241.087 341.668C241.87 337.87 241.59 333.806 243.475 330.304L243.637 330.016Z" fill="#062161"/>
<path d="M251.055 328.198C252.213 328.147 253.293 328.182 254.424 328.46C256.389 328.944 258.068 330.077 259.032 331.9C260.308 334.314 260.438 337.849 259.509 340.399C258.192 344.011 255.538 345.397 252.245 346.896C250.797 347.031 249.227 347.202 247.839 346.678C246.025 345.991 244.459 344.783 243.759 342.926C242.664 340.023 243.072 335.745 244.47 332.992C245.94 330.096 248.13 329.145 251.055 328.198Z" fill="#E5001F"/>
<path d="M237.534 344.827C239.006 344.94 240.323 345.046 241.63 345.79C243.865 347.063 245.389 349.411 245.997 351.89C246.839 355.327 246.465 359.579 244.479 362.563C242.206 365.978 238.793 367.483 234.958 368.396C233.222 368.444 231.735 368.165 230.276 367.162C228.066 365.643 226.389 362.96 225.95 360.313C225.384 356.905 226.145 353.316 228.148 350.505C230.526 347.17 233.582 345.561 237.534 344.827Z" fill="#E5001F"/>
<path d="M272.342 348.639C273.804 348.437 275.265 348.628 276.69 349.002C282.963 350.646 286.276 354.604 289.35 359.989C292.687 360.175 296.25 360.545 299.28 362.063C303.33 364.093 306.209 367.518 307.532 371.827L307.731 372.5L307.919 373.087C309.011 376.686 308.423 380.647 306.639 383.914C304.57 387.703 301.349 390.431 297.175 391.564L296.562 391.724C289.857 393.524 284.436 391.093 278.25 388.674L273.891 395.758C272.246 397.918 270.112 399.862 267.785 401.26C263.789 403.661 258.953 404.45 254.41 403.273C249.777 402.073 246.138 399.395 243.806 395.164C241.615 391.188 241.387 386.737 242.688 382.438C244.54 376.324 249.765 373.201 255.05 370.392C254.394 365.242 255.615 359.441 258.811 355.31C262.167 350.974 267.09 349.258 272.342 348.639Z" fill="#062161"/>
<path d="M270.17 351.189C278.064 350.958 282.406 352.941 286.747 359.76C287.053 360.239 287.89 361.966 288.297 362.236C289.112 362.776 292.71 362.691 294.009 363.044C298.156 364.174 302.102 366.333 304.144 370.287C305.702 373.302 306.325 377.636 305.122 380.846C303.761 384.478 300.808 387.238 297.291 388.758C290.976 391.488 282.783 387.862 276.891 385.582L273.856 390.959C271.288 395.025 268.274 398.622 263.563 400.203C259.745 401.484 255.505 401.396 251.901 399.503C248.656 397.798 246.013 394.569 244.972 391.059C242.767 383.614 248.169 376.881 254.414 373.64C255.001 373.335 257.552 372.516 257.843 372.162C257.853 372.149 257.712 370.607 257.704 370.51C257.365 366.21 257.365 362.127 259.573 358.251C261.938 354.101 265.721 352.31 270.17 351.189Z" fill="#E5001F"/>
<path d="M682.61 486.657C689.661 493.687 695.024 501.94 699.522 510.787C708.219 527.895 712.984 546.476 713.013 565.69C713.019 568.898 713.635 573.85 712.62 576.815C700.505 571.986 689.247 569.895 676.252 569.539C670.164 569.371 663.278 569.614 657.5 571.656L656.461 572.018C660.273 555.174 664.084 539.222 672.148 523.78C667.627 529.011 663.387 534.492 660.266 540.688C651.423 558.244 651.302 578.714 643.436 596.699C640.583 603.223 637.275 609.799 632.77 615.352C628.747 620.311 622.728 624.638 620.179 630.554C619.338 633.445 619.281 636.628 619.257 639.621C619.197 647.19 620.022 653.782 623.676 660.541C625.194 663.349 627.282 666.058 629.481 668.367L629.295 668.725C624.24 678.713 620.724 689.595 615.929 699.735C603.229 726.592 581.96 746.438 553.554 755.806C528.137 764.188 498.825 762.657 474.858 750.528L457.407 739.951C453.266 737.406 449.562 733.865 446.135 730.434C433.447 717.731 424.54 702.785 419.272 685.638C411.138 659.158 413.796 631.076 426.819 606.635C439.351 583.113 461.545 568.861 486.46 561.241L487.729 560.965C493.878 559.653 500.525 558.25 506.409 556.072C508.454 558.699 513.153 560.372 516.308 561.104L516.875 561.23L517.29 561.328C522.341 562.422 530.058 560.867 533.871 557.188C534.68 556.407 536.529 553.876 537.396 553.503C538.407 553.067 540.562 553.087 541.716 552.958C545.795 552.499 549.914 552.186 553.962 551.494L578.264 546.328C605.183 539.473 630.379 527.336 653.263 511.699C659.273 507.592 664.527 502.243 670.636 498.354L670.921 498.177L682.61 486.657Z" fill="#E5001F"/>
<path d="M526.609 595.256C527.394 594.328 527.797 593.823 529.023 593.563C532.305 592.866 535.805 592.933 538.648 594.75C537.364 595.522 536.712 595.449 535.25 595.381C533.338 595.293 529.687 594.623 528.307 596.234C528.113 596.46 527.936 596.85 527.801 597.121L526.609 595.256Z" fill="#F3EFBC"/>
<path d="M494.743 699.176C495.228 699.351 495.784 699.379 496.023 699.878C496.411 700.687 496.261 701.74 496.262 702.618L496.236 710.103C495.792 711.637 495.484 712.984 494.502 714.274L494.396 714.433L494.2 701.313L494.743 699.176Z" fill="#F2E690"/>
<path d="M539.763 596.269C541.498 597.8 543.226 599.151 543.458 601.625L543.485 607.249L539.762 606.873L539.763 596.269Z" fill="#062161"/>
<path d="M473.793 622.223L490.608 622.465C491.531 622.467 493.601 622.82 494.379 622.593L494.336 625.606C491.049 625.677 478.467 626.872 476.169 625.451C474.822 624.618 474.198 623.691 473.793 622.223Z" fill="#062161"/>
<path d="M472.173 698.687C475.03 698.69 493.397 698.206 494.743 699.176L494.2 701.313L493.063 702.091L481.408 702.307C478.898 702.34 476.142 702.516 473.752 701.656C472.687 700.707 472.488 700.061 472.173 698.687Z" fill="#062161"/>
<path d="M473.807 621.988C473.23 621.694 473.221 621.769 472.869 621.389C471.299 619.695 471.666 615.598 471.823 613.377C471.942 611.702 472.323 609.632 473.705 608.517C477.024 605.839 494.014 607.267 498.909 607.58C498.794 604.374 497.805 596.769 500.35 594.469C502.254 592.748 506.311 592.84 508.737 593.041C510.835 593.215 511.768 593.978 513.105 595.519C516.747 599.461 516.202 602.261 516.144 607.285L525.823 607.644C525.828 604.456 524.987 597.846 526.609 595.256L527.801 597.121L527.699 609.513L511.077 609.52C511.027 607.86 510.933 596.47 510.222 595.915C508.56 594.621 503.639 595.222 501.473 595.247L501.492 609.49L484.623 609.47C481.628 609.471 477.556 608.888 474.873 610.218C472.802 613.51 475.615 618.95 473.807 621.988Z" fill="#F2E690"/>
<path d="M513.105 595.519C516.748 599.461 516.202 602.261 516.145 607.285C514.786 607.228 514.162 607.468 513.162 606.5L513.105 595.519Z" fill="#000006"/>
<path d="M506.41 556.072C508.454 558.699 513.154 560.372 516.308 561.104L516.875 561.23L517.29 561.328C522.341 562.422 530.059 560.867 533.872 557.188C534.68 556.407 536.529 553.876 537.397 553.503C538.408 553.067 540.562 553.087 541.716 552.958C545.795 552.499 549.914 552.186 553.963 551.494L578.264 546.328C605.183 539.473 630.38 527.336 653.264 511.699C659.273 507.592 664.528 502.243 670.637 498.354L670.922 498.177C669.95 501.667 665.64 504.309 662.938 506.686C647.324 520.421 630.737 532.632 612.606 542.897C594.891 552.927 575.824 560.837 556.075 565.816C544.396 568.759 532.032 570.804 519.945 570.055C514.073 569.691 508.548 568.495 502.906 566.909C498.163 565.576 491.761 563.821 487.729 560.965C493.878 559.653 500.525 558.25 506.41 556.072Z" fill="#A71311"/>
<path d="M538.648 594.75L539.763 596.269L539.762 606.873L543.485 607.249C550.734 607.527 556.281 608.914 561.402 614.427C562.372 615.472 563.288 616.517 564.104 617.69L565.768 622.093C568.722 628.494 568.993 637.171 566.434 643.735C565.401 646.384 563.672 648.804 562.032 651.107C563.987 653.148 566.013 655.129 567.569 657.5L568.329 658.684L567.48 659.45C569.945 662.279 571.228 671.35 570.99 674.925C570.876 676.632 570.032 679.888 571.126 681.19C569.718 686.515 566.111 691.415 561.312 694.174C559.944 694.96 557.421 696.29 555.881 696.295C551.495 697.381 546.833 698.071 542.307 698.093L542.295 709.428C542.287 711.436 542.489 713.65 541.963 715.591C540.448 716.359 537.891 716.019 536.185 716.018C532.251 716.017 528.216 716.176 524.292 715.951L522.666 716.185C523.733 711.937 523.24 706.842 522.978 702.478L522.687 699.413C520.557 698.217 514.709 699.046 512.01 699.117L511.985 710.545C511.978 711.861 512.272 714.147 511.602 715.261L511.329 715.429C510.177 715.944 507.837 715.645 506.556 715.651C502.658 715.669 497.616 716.281 493.929 714.852L494.396 714.433L494.502 714.274C495.484 712.984 495.792 711.637 496.236 710.103L496.262 702.618C496.261 701.74 496.411 700.687 496.023 699.878C495.784 699.379 495.228 699.351 494.743 699.176C493.397 698.206 475.03 698.69 472.173 698.687L471.98 698.461C469.608 695.794 469.567 692.714 469.602 689.297C469.618 687.618 469.533 685.346 470.514 683.899C474.327 678.28 490.637 684.458 493.92 679.903C495.728 677.393 494.492 661.765 494.458 658.006L494.336 625.606L494.379 622.593C493.601 622.82 491.531 622.467 490.608 622.465L473.793 622.223L473.807 621.988C475.615 618.95 472.802 613.51 474.873 610.218C477.556 608.888 481.628 609.471 484.623 609.47L501.492 609.49L501.473 595.247C503.639 595.222 508.56 594.621 510.222 595.915C510.933 596.47 511.027 607.86 511.077 609.52L527.699 609.513L527.801 597.121C527.936 596.85 528.113 596.46 528.306 596.234C529.686 594.623 533.337 595.293 535.25 595.381C536.712 595.449 537.364 595.522 538.648 594.75Z" fill="#E4B447"/>
<path d="M510.94 681.715C510.81 679 511.116 676.293 511.135 673.579L510.834 664.306C510.841 663.315 510.666 662.282 511.265 661.438L512.746 661.312L512.362 675.196C511.085 677.558 511.687 679.329 510.94 681.715Z" fill="#F2E690"/>
<path d="M512.362 675.196C512.431 677.394 512.277 679.827 512.938 681.934C513.8 682.401 514.786 682.426 515.744 682.54L535.627 682.582C535.566 683.166 535.42 683.578 535.223 684.125C534.869 684.364 534.781 684.455 534.313 684.586C532.33 685.136 512.291 685.081 511.008 684.404L510.94 681.715C511.687 679.329 511.085 677.558 512.362 675.196Z" fill="url(#paint1_linear_102_103)"/>
<path d="M565.769 622.093C564.223 621.987 563.666 620.71 562.819 619.573C559.568 615.212 554.662 611.104 549.131 610.084C546.71 609.637 543.98 609.748 541.514 609.633C540.344 609.579 538.989 609.737 537.97 609.094L537.905 607.063L538.438 606.511L539.762 606.873L543.485 607.249C550.734 607.527 556.282 608.914 561.402 614.427C562.373 615.472 563.288 616.517 564.104 617.69L565.769 622.093Z" fill="#F2E690"/>
<path d="M544.804 626.086C546.182 626.613 546.759 626.915 547.39 628.346C548.983 631.96 549.184 636.643 547.685 640.318C546.904 642.234 545.323 644.665 543.313 645.445C539.465 646.939 533.985 645.892 529.929 645.826L511.343 645.688C511.019 644.916 511.053 644.715 511.147 643.872C511.322 644.823 511.274 644.88 512 645.5L531.875 645.409C533.167 645.35 533.463 645.514 534.675 644.773C533.913 644.063 530.152 644.43 528.909 644.44L515.75 644.41C514.438 644.428 513.592 644.717 512.341 644.113L513.079 643.641L515.825 644.097C517.896 643.751 520.39 643.885 522.509 643.882L534.563 643.931C536.806 643.936 539.209 644.028 541.409 643.537C543.197 643.137 544.82 641.34 545.625 639.776C547.159 636.796 546.853 632.059 545.778 628.963L544.804 626.086Z" fill="#F2E690"/>
<path d="M513.079 643.641C512.357 642.035 512.743 639.286 512.743 637.526L512.774 622.522C515.353 622.737 517.972 623.029 520.561 622.951C528.168 622.717 538.606 620.763 544.804 626.086L545.778 628.963C540.197 625.562 535.426 626.035 529.119 626.011L515.896 625.984L515.825 644.097L513.079 643.641Z" fill="#062161"/>
<path d="M496.236 710.103L510.595 699.277L510.776 709.356C510.797 711.129 510.596 713.266 511.066 714.959L511.602 715.261L511.329 715.429C510.177 715.944 507.837 715.645 506.556 715.651C502.658 715.669 497.616 716.281 493.929 714.852L494.396 714.433L494.502 714.274C495.484 712.984 495.792 711.637 496.236 710.103Z" fill="#CA8517"/>
<path d="M512.746 661.312C514.773 660.255 519.574 660.842 521.936 660.843L533.065 660.827C536.176 660.76 539.649 660.364 542.657 661.356C545.835 662.404 548.04 664.998 549.36 667.988C550.258 670.023 550.012 672.58 549.189 674.602C547.988 677.553 545.356 679.99 542.437 681.213C540.375 682.078 537.845 682.51 535.627 682.582C536.681 680.26 540.859 678.061 542.792 676.104C544.862 674.008 546.592 671.766 548.157 669.274C546.964 667.606 545.81 666.549 544.19 665.329C539.233 663.112 533.038 663.726 527.733 663.723C523.907 663.721 519.976 663.54 516.168 663.919C515.403 665.419 515.74 667.948 515.739 669.639L515.744 682.54C514.786 682.426 513.8 682.401 512.938 681.934C512.277 679.827 512.431 677.394 512.362 675.196L512.746 661.312Z" fill="#062161"/>
<path d="M516.168 663.919L516.147 678.862C525.555 674.821 536.814 673.015 544.19 665.329C545.81 666.549 546.964 667.606 548.157 669.274C546.592 671.766 544.862 674.008 542.792 676.104C540.859 678.061 536.681 680.26 535.627 682.582L515.744 682.54L515.739 669.639C515.739 667.948 515.403 665.419 516.168 663.919Z" fill="#A71311"/>
<path d="M494.379 622.593C495.303 622.348 495.766 622.246 496.689 622.531C497.184 623.631 496.987 625.022 496.989 626.207L496.997 633.947L497.011 666.63L497.013 676.035C497.01 677.535 497.205 679.327 496.74 680.77C496.286 682.173 494.958 683.186 493.625 683.716C489.239 685.462 483.252 684.844 478.629 684.788C477.429 684.774 474.878 684.475 473.805 684.987C473.449 685.156 473.241 685.537 472.958 685.813C471.591 689.215 474.17 695.644 471.98 698.461C469.608 695.794 469.567 692.714 469.602 689.297C469.618 687.618 469.533 685.346 470.514 683.899C474.327 678.28 490.637 684.458 493.92 679.903C495.728 677.393 494.492 661.765 494.458 658.006L494.336 625.606L494.379 622.593Z" fill="#F2E690"/>
<path d="M516.168 663.919C519.976 663.54 523.907 663.721 527.733 663.723C533.038 663.726 539.233 663.112 544.19 665.329C536.814 673.015 525.555 674.821 516.147 678.862L516.168 663.919Z" fill="#E5001F"/>
<path d="M515.825 644.097L515.896 625.984L529.119 626.011C535.426 626.035 540.197 625.562 545.778 628.963C546.853 632.059 547.159 636.796 545.625 639.776C544.82 641.34 543.197 643.137 541.409 643.537C539.209 644.028 536.806 643.936 534.563 643.931L522.509 643.882C520.39 643.885 517.896 643.751 515.825 644.097Z" fill="#E5001F"/>
<path d="M524.292 715.951L524.376 698.011L512.955 698.002C515.487 696.042 518.337 694.463 521.058 692.779C524.204 690.832 527.428 688.703 530.848 687.277L531.481 687.022C534.294 685.865 537.041 685.795 540 685.36C546.96 684.337 551.284 679.555 551.568 672.622C551.617 671.432 551.105 669.388 551.343 668.35C551.505 667.644 553.779 666.127 554.333 665.692C558.366 662.514 561.069 659.371 564.16 655.288L567.48 659.45C569.945 662.279 571.228 671.35 570.99 674.925C570.876 676.632 570.032 679.888 571.126 681.19C569.718 686.515 566.111 691.415 561.312 694.174C559.944 694.96 557.421 696.29 555.881 696.295C551.495 697.381 546.833 698.071 542.307 698.093L542.295 709.428C542.287 711.436 542.489 713.65 541.963 715.591C540.448 716.359 537.891 716.019 536.185 716.018C532.251 716.017 528.216 716.176 524.292 715.951Z" fill="#A96304"/>
<path d="M541.963 715.591C541.107 713.836 541.428 711.344 541.407 709.438L541.207 696.174L555.114 695.501L555.881 696.295C551.495 697.381 546.833 698.071 542.308 698.093L542.295 709.428C542.287 711.436 542.489 713.65 541.963 715.591Z" fill="#E4B447"/>
<path d="M567.85 652.294C571.183 650.802 573.487 646.761 575.667 643.906C584.123 632.832 591.571 621.187 597.898 608.769L605.335 592.742C609.382 598.666 612.241 605.515 614.629 612.252C615.738 615.382 616.707 618.657 617.485 621.884C618.048 624.216 618.23 628.258 619.782 630.117L620.179 630.554C619.338 633.445 619.281 636.628 619.257 639.621C619.197 647.19 620.022 653.782 623.676 660.541C625.195 663.349 627.282 666.058 629.481 668.367L629.296 668.725C624.24 678.713 620.724 689.595 615.929 699.735C603.229 726.592 581.96 746.438 553.555 755.806C528.137 764.188 498.825 762.657 474.858 750.528L457.407 739.951C462.611 734.511 469.516 730.203 475.52 725.64C479.865 722.338 484.226 718.507 488.795 715.576C490.618 714.406 491.587 714.484 493.616 714.937L493.929 714.852C497.616 716.281 502.658 715.669 506.556 715.651C507.837 715.645 510.177 715.944 511.329 715.429L511.602 715.261C512.272 714.147 511.978 711.861 511.985 710.545L512.01 699.117C514.709 699.046 520.557 698.217 522.687 699.413L522.978 702.478C523.24 706.842 523.733 711.937 522.666 716.185L524.293 715.951C528.217 716.176 532.251 716.017 536.185 716.018C537.891 716.019 540.448 716.359 541.963 715.591C542.489 713.65 542.287 711.436 542.295 709.428L542.307 698.093C546.833 698.071 551.495 697.381 555.881 696.295C557.421 696.29 559.945 694.96 561.313 694.174C566.111 691.415 569.719 686.515 571.126 681.19C570.032 679.888 570.876 676.632 570.99 674.925C571.228 671.35 569.945 662.279 567.481 659.45L568.33 658.684L567.569 657.5C566.013 655.129 563.987 653.148 562.032 651.107C563.672 648.804 565.401 646.384 566.434 643.735C568.993 637.171 568.722 628.494 565.768 622.093L564.104 617.69C567.289 619.582 569.264 623.65 570.161 627.125C571.65 632.896 571.528 639.817 569.707 645.505C569.127 647.32 566.901 650.69 567.85 652.294Z" fill="#A71311"/>
<path d="M511.602 715.261C512.272 714.147 511.978 711.861 511.985 710.545L512.01 699.117C514.709 699.046 520.557 698.217 522.687 699.413L522.978 702.478L515.769 702.476C515.499 707.548 515.861 713.317 514.956 718.265C509.056 719.774 502.199 719.452 496.13 719.351C494.98 718.315 493.885 717.426 493.201 716L493.616 714.937L493.929 714.852C497.616 716.281 502.658 715.669 506.556 715.651C507.837 715.645 510.177 715.944 511.329 715.429L511.602 715.261Z" fill="#062161"/>
<path d="M564.104 617.69C567.289 619.582 569.264 623.65 570.161 627.125C571.65 632.896 571.528 639.817 569.707 645.505C569.127 647.32 566.901 650.69 567.85 652.294C569.217 654.432 570.803 656.428 571.996 658.673C575.489 665.245 576.57 672.885 575.037 680.182C573.61 686.969 569.791 693.109 563.865 696.836C558.429 700.255 552.285 701.588 545.978 702.174C546.009 705.909 547.047 716.476 544.512 719.009C544.341 719.181 543.854 719.608 543.687 719.691C542.636 720.211 540.024 719.993 538.794 719.998C534.216 720.016 529.513 720.197 524.946 719.938L522.957 719.641C522.416 718.724 522.307 717.871 522.496 716.785L522.666 716.185L524.292 715.951C528.216 716.176 532.251 716.017 536.185 716.018C537.891 716.019 540.448 716.359 541.963 715.591C542.489 713.65 542.287 711.436 542.295 709.428L542.307 698.093C546.833 698.071 551.495 697.381 555.881 696.295C557.421 696.29 559.944 694.96 561.312 694.174C566.111 691.415 569.719 686.515 571.126 681.19C570.032 679.888 570.876 676.632 570.99 674.925C571.228 671.35 569.945 662.279 567.48 659.45L568.33 658.684L567.569 657.5C566.013 655.129 563.987 653.148 562.032 651.107C563.672 648.804 565.401 646.384 566.434 643.735C568.993 637.171 568.722 628.494 565.768 622.093L564.104 617.69Z" fill="#062161"/>
<path d="M568.329 658.684C571.817 664.661 573.683 672.247 571.784 679.084L571.126 681.19C570.032 679.888 570.876 676.632 570.99 674.925C571.228 671.35 569.945 662.279 567.48 659.45L568.329 658.684Z" fill="#CA8517"/>
<path d="M476.795 252.939C484.384 250.972 492.583 250.049 500.375 249.353C518.239 247.758 535.992 248.055 553.685 251.228C556.948 251.813 560.38 252.21 563.564 253.105C588.143 258.852 612.264 268.949 632.911 283.608C636.688 286.289 640.74 289.098 644.089 292.301C647.076 293.815 649.795 296.415 652.269 298.666C657.7 303.609 662.812 308.912 667.372 314.67L671.695 320.241C672.172 320.872 672.791 321.975 673.384 322.455C691.067 348.545 698.834 379.385 692.773 410.509C690.138 424.039 685.015 436.401 678.262 448.36C675.63 453.022 672.528 458.249 668.93 462.218C668.902 464.492 669.632 465.224 671.237 466.864L671.555 467.184L686.364 478.303C686.917 478.804 687.659 479.335 688.117 479.911L682.61 486.657L670.921 498.177L670.636 498.354C664.528 502.243 659.273 507.592 653.263 511.699C630.379 527.336 605.183 539.473 578.264 546.328L553.963 551.494C549.914 552.186 545.795 552.499 541.716 552.958C540.562 553.087 538.408 553.067 537.397 553.503C536.529 553.876 534.68 556.407 533.872 557.188C530.059 560.867 522.341 562.422 517.29 561.328L516.875 561.23L516.308 561.104C513.154 560.372 508.454 558.699 506.41 556.072C500.525 558.25 493.878 559.653 487.729 560.965L486.46 561.241C484.504 560.089 481.899 559.764 479.695 559.252L470.778 556.879C462.135 554.356 453.541 551.638 445.18 548.275C437.307 545.108 429.474 541.762 422.041 537.653C409.276 530.595 397.957 521.954 387.273 512.061C385.309 510.243 380.684 506.895 379.675 504.52L380.374 504.434L380.454 504.112L380.55 503.64L380.669 503.118C381.04 499.945 377.231 495.838 375.589 493.299C370.027 486.909 364.151 480.01 363.296 471.276C362.886 467.084 362.907 462.926 362.233 458.752L366.15 462.738C369.706 465.482 374.815 469.204 379.015 470.682L379.497 470.333C367.945 458.832 358.757 444.885 353.169 429.556C343.24 402.321 343.789 367.345 356.001 340.963C360.206 330.859 365.978 322.427 373.273 314.322C375.495 311.853 378.002 309.629 380.09 307.046L380.344 306.727C388.75 298.816 397.186 291.191 406.55 284.398C423.045 272.433 441.669 263.148 461.084 257.01C466.224 255.385 471.557 254.207 476.795 252.939Z" fill="#FEFEFE"/>
<path d="M431.204 404.515C431.524 404.368 432.522 404.411 432.885 404.389C434.986 404.264 437.086 404.155 439.191 404.26C441.054 404.354 442.359 404.662 443.649 406.063C442.553 407.571 439.748 407.911 437.979 408.313C432.337 409.591 426.582 409.89 420.875 410.722L395.086 415.45L383.346 418.275C397.734 410.467 415.118 406.654 431.204 404.515Z" fill="#062161"/>
<path d="M595.043 404.563C600.783 403.669 606.827 404.505 612.5 405.493C626.64 407.955 642.199 412.78 654.688 419.893L653.791 419.938L632.868 414.525L611.801 410.145L601.438 408.147C598.753 407.626 595.835 407.227 593.494 405.751L593.563 405.085L595.043 404.563Z" fill="#062161"/>
<path d="M404.335 392.152C406.24 391.768 408.524 391.821 410.482 391.833C417.863 391.876 437.477 392.209 442.53 397.329L442.438 398.002C439.597 399.241 421.82 397.067 417.469 396.811L375.205 396.328C384.681 393.803 394.606 393.213 404.335 392.152Z" fill="#062161"/>
<path d="M616.141 391.785C621.789 391.283 627.838 391.593 633.5 391.951C644.043 392.62 654.514 394.041 664.738 396.736L639.579 396.505L607.209 397.252L596.443 397.586C595.636 397.588 594.046 397.813 593.375 397.582C593.019 397.459 592.75 397.161 592.438 396.951L592.687 396.601C595.963 393.013 611.068 392.155 616.141 391.785Z" fill="#062161"/>
<path d="M379.858 372.708C384.791 372.339 389.655 372.819 394.57 373.159C403.762 373.795 412.765 374.902 421.813 376.695C426.583 377.641 431.463 378.585 435.985 380.422C439.936 382.027 446.475 384.464 448.244 388.625L447.875 389.29L446.169 389.329C441.227 388.146 436.354 386.377 431.479 384.909L405.015 377.781C399.172 376.451 393.27 375.651 387.342 374.799C384.145 374.34 380.626 374.116 377.562 373.087L379.858 372.708Z" fill="#062161"/>
<path d="M663.965 370.438C664.325 370.564 664.138 370.461 664.489 370.813L592.063 387.454C591.372 387.262 591.736 387.412 590.999 386.938C591.199 386.563 591.239 386.435 591.579 386.093C594.809 382.848 600.936 381.066 605.216 379.734C624.13 373.843 644.228 371.387 663.965 370.438Z" fill="#062161"/>
<path d="M441.014 323.485L442.543 323.354C452.798 322.71 461.838 326.347 469.411 333.12C480.05 342.633 482.708 355.707 483.424 369.331C481.98 364.982 480.328 360.801 477.976 356.857C471.952 346.755 463.468 339.201 451.914 336.243C446.631 335.013 440.788 335.494 435.617 337.053C425.275 340.172 417.846 347.857 412.543 357.018C410.599 360.378 409.086 363.957 407.272 367.386C407.844 357.853 409.597 347.644 415.193 339.648C421.711 330.333 429.863 325.396 441.014 323.485Z" fill="#062161"/>
<path d="M592.015 323.499C595.171 323.211 598.345 323.27 601.452 323.94C609.043 325.576 614.897 328.588 620.44 334.098C628.632 342.242 632.326 353.31 632.364 364.687C628.817 356.688 624.259 349.595 617.419 344.006C609.529 337.56 601.215 335.145 591.091 336.123C589.132 336.379 587.126 336.742 585.263 337.419C570.082 342.937 561.874 355.283 555.502 369.295C554.953 359.366 559.061 347.5 564.834 339.535C571.848 329.859 580.416 325.336 592.015 323.499Z" fill="#062161"/>
<path d="M456.015 316.195L455.626 316.081C450.789 314.629 447.263 311.374 445.013 306.907C442.82 302.553 442.935 297.526 444.54 293C446.062 288.703 449.007 285.181 453.155 283.234C458.001 280.96 463.257 280.843 468.264 282.645C473.223 284.43 477.099 287.615 479.406 292.381C481.21 296.11 481.828 301.048 480.389 304.994C478.686 309.664 474.966 313.771 470.328 315.679L468.5 316.312L467.943 316.496C465.582 317.235 462.692 317.515 460.25 317.117C458.784 316.879 457.432 316.656 456.015 316.195Z" fill="#E4B447"/>
<path d="M456.475 284.052C457.766 284.156 459.214 284.183 460.424 284.691C462.129 285.408 463.528 286.92 464.203 288.634C464.988 290.631 464.829 292.692 463.83 294.599C462.513 297.112 460.064 298.496 457.492 299.401C455.773 299.436 453.511 299.213 452 298.339C450.652 297.558 449.545 295.829 449.141 294.351C448.578 292.291 448.976 289.983 450.043 288.156C451.565 285.549 453.682 284.754 456.475 284.052Z" fill="#FEFEFE"/>
<path d="M468.264 282.645C473.223 284.43 477.099 287.615 479.406 292.381C481.21 296.11 481.828 301.048 480.389 304.994C478.686 309.664 474.967 313.771 470.329 315.679L468.5 316.312L467.944 316.496C465.583 317.235 462.692 317.515 460.25 317.117C458.785 316.879 457.432 316.656 456.016 316.195C457.368 315.166 460.046 315.312 461.724 315.073C463.577 314.809 465.361 314.285 467.041 313.453C471.466 311.258 474.49 307.269 475.92 302.594C477.015 299.015 476.346 296.107 474.588 292.864C474.577 296.506 474.787 300.13 472.564 303.266C469.883 307.052 465.782 309.034 461.385 309.996C459.7 310.365 458.398 310.327 456.688 310.168L456.496 309.688C459.967 309.491 463.312 309.352 466.376 307.487C469.792 305.407 472.188 300.883 473.046 297.091C474.496 290.683 471.445 287.684 468.264 282.645Z" fill="#CA8517"/>
<path d="M572.305 317.254L570.814 316.822C565.776 315.128 561.618 311.376 559.376 306.556C557.439 302.395 557.646 297.433 559.253 293.188C561.042 288.461 565.112 284.11 569.858 282.265C573.872 280.705 579.753 280.881 583.698 282.658C588.454 284.5 592.393 287.905 594.444 292.625C596.292 296.878 596.78 302.46 594.936 306.778C592.864 311.632 588.454 315.284 583.554 317.075C579.971 318.385 575.95 318.359 572.305 317.254Z" fill="#E4B447"/>
<path d="M571.399 284.047C572.747 283.969 574.233 284.122 575.563 284.388C577.242 284.725 578.545 285.93 579.376 287.385C580.402 289.183 581.038 290.971 580.435 293.012L580.255 293.562L579.938 294.531C578.801 297.472 576.723 298.691 573.946 299.884C572.384 299.73 570.591 299.694 569.085 299.271C567.457 298.813 565.827 296.982 565.154 295.488C564.334 293.667 564.32 291.553 565.051 289.704C566.217 286.756 568.663 285.303 571.399 284.047Z" fill="#FEFEFE"/>
<path d="M572.305 317.253L572.643 317.058C574.038 316.17 575.723 316.2 577.329 315.939C581.298 315.294 584.883 312.945 587.484 309.951C590.871 306.053 591.6 300.212 591.342 295.272L590.937 295.172C590.72 299.772 590.063 302.514 586.731 305.949C583.767 309.004 579.357 311.197 575 310.983C573.888 310.928 573.126 310.831 572.432 309.981C575.252 310.401 578.902 309.981 581.331 308.365C584.949 305.957 587.326 301.893 588.033 297.64C589.077 291.345 586.983 288.111 583.449 283.24L583.698 282.657C588.454 284.499 592.393 287.904 594.444 292.625C596.292 296.877 596.78 302.46 594.936 306.778C592.864 311.631 588.454 315.284 583.554 317.075C579.971 318.384 575.95 318.359 572.305 317.253Z" fill="#CA8517"/>
<path d="M516.78 372.248C521.901 371.52 527.79 372.231 532.686 373.86C536.704 375.196 541.081 377.554 542.883 381.618C544.318 384.851 543.599 388.528 542.232 391.637C538.454 400.225 529.926 402.564 522.037 405.676C523.532 410.141 525.838 412.82 529.693 415.417C538.475 421.333 551.233 423.187 561.459 421.078C567.17 419.901 572.344 417.4 575.494 412.294C579.147 406.372 577.568 399.054 575.892 392.8C579.016 396.711 581.161 400.402 581.835 405.477C583.341 416.836 574.869 423.943 564.798 426.536C563.911 426.764 559.667 427.384 559.225 427.816C559.045 427.993 557.61 439.125 557.228 440.709C555.388 448.328 552.023 455.92 547.248 462.146C541.353 469.835 532.517 474.633 522.966 475.912C513.562 476.279 504.283 474.079 497.036 467.864C485.362 457.854 482.387 442.535 481.215 427.943C480.741 427.617 480.992 427.721 480.312 427.619C474.626 426.767 468.968 425.104 464.397 421.445C460.118 418.02 457.73 413.264 457.161 407.833C456.516 401.68 459.308 396.739 463.013 392.113C461.838 396.805 460.78 401.211 461.748 406.063C462.659 410.625 464.827 415.093 468.875 417.653C476.784 422.656 487.014 422.743 495.875 420.71C505.525 418.497 512.295 413.446 517.524 405.102C513.362 403.489 509.218 401.678 505.554 399.098C501.791 396.448 497.187 391.933 496.62 387.125C496.315 384.544 496.71 382.325 498.312 380.228C502.716 374.465 510.096 373.34 516.78 372.248Z" fill="#062161"/>
<path d="M529.387 377.86C532.375 378.973 537.478 380.354 539.08 383.375C539.831 384.79 539.326 386.855 538.756 388.257C536.575 393.629 531.032 397.067 525.852 399.059C523.21 400.075 520.73 400.14 517.938 399.97C518.776 398.06 520.748 396.185 521.933 394.386C525.395 389.137 527.576 383.864 529.387 377.86Z" fill="#A71311"/>
<path d="M508.118 377.858C515.103 376.323 522.377 376.578 529.387 377.86C527.576 383.864 525.394 389.136 521.933 394.386C520.747 396.185 518.775 398.06 517.938 399.97L515.187 399.519C509.667 398.104 503.724 392.649 500.866 387.795C500.022 386.364 499.288 384.678 499.818 383C500.282 381.528 501.244 380.811 502.529 380.071C504.025 378.813 506.24 378.276 508.118 377.858Z" fill="#E5001F"/>
<path d="M508.118 377.858C509.234 378.333 510.384 378.557 510.853 379.813C511.298 381.001 511.414 382.578 510.808 383.712C510.076 385.083 508.505 385.651 507.083 386.033C505.291 386.515 503.44 386.668 501.808 385.699C501.198 384.823 500.798 384.144 501.021 383C501.212 382.016 502.006 380.917 502.529 380.071C504.025 378.814 506.24 378.277 508.118 377.858Z" fill="#E1CFD0"/>
<path d="M507.355 442.292C508.975 442.275 510.87 442.031 512.446 442.398C518.816 443.881 515.67 458.611 518.938 463.257C521.026 461.699 520.925 449.657 521.555 446.563C521.884 444.946 522.424 443.746 523.813 442.822C527.325 441.973 531.435 442.658 534.688 444.193C539.846 446.627 542.131 451.077 544.057 456.13C543.388 458.059 542.551 459.56 541.447 461.26C538.23 464.957 534.652 467.882 530.113 469.78C523.435 472.573 515.689 472.559 508.987 469.787C503.022 467.32 497.097 462.796 494.74 456.585C493.863 454.275 494.353 452.452 495.423 450.346C497.798 445.666 502.625 443.737 507.355 442.292Z" fill="#E5001F"/>
<path d="M644.089 292.301C647.076 293.815 649.795 296.415 652.269 298.666C657.7 303.609 662.812 308.912 667.372 314.67L671.695 320.241C672.172 320.872 672.791 321.975 673.384 322.455C691.067 348.545 698.834 379.385 692.773 410.509C690.138 424.039 685.015 436.401 678.262 448.36C675.63 453.022 672.528 458.249 668.93 462.218C664.504 467.451 659.884 472.627 654.766 477.201C626.25 502.684 589.1 515.311 551.835 520.7C546.178 521.518 540.382 522.511 534.688 522.976C529.799 523.375 526.091 520.848 521.199 520.843C519.13 520.84 517.141 521.159 515.152 521.728C513.352 522.244 512.107 522.934 510.187 522.897C500.331 522.704 490.11 521.127 480.434 519.32C446.759 513.033 414.268 500.443 388.008 477.972C385.219 475.585 382.528 472.305 379.497 470.333C367.945 458.832 358.757 444.885 353.169 429.556C343.24 402.321 343.789 367.345 356.001 340.963C355.901 343.666 355.017 346.221 354.265 348.795C347.291 372.673 349.114 399.838 361.279 421.751C365.814 429.919 371.913 437.234 378.403 443.908C401.656 467.818 431.805 483.128 463.668 492.147C489.03 499.325 516.105 500.864 542.234 498.088C567.922 495.359 592.905 488.654 615.512 475.957C633.106 466.077 649.398 453.4 660.745 436.488C667.626 426.231 672.555 414.571 675.851 402.694C684.563 371.297 677.437 338.349 659.482 311.563C656.794 307.552 653.818 303.456 650.674 299.799C648.79 297.608 645.695 295.465 644.4 292.95L644.089 292.301Z" fill="#E4B447"/>
<path d="M375.589 493.299C370.027 486.909 364.151 480.01 363.296 471.276C362.886 467.084 362.907 462.926 362.232 458.751L366.15 462.738C369.706 465.482 374.814 469.204 379.014 470.682L379.497 470.333C382.528 472.305 385.218 475.584 388.008 477.972C414.268 500.443 446.759 513.033 480.434 519.32C490.11 521.127 500.331 522.704 510.187 522.897C512.106 522.934 513.351 522.243 515.152 521.728C517.141 521.159 519.13 520.839 521.199 520.842C526.091 520.848 529.799 523.374 534.687 522.975C540.381 522.51 546.178 521.518 551.835 520.7C589.1 515.31 626.25 502.683 654.765 477.201C659.883 472.627 664.503 467.451 668.93 462.218C668.902 464.492 669.632 465.224 671.237 466.863L671.555 467.184L686.364 478.303C686.916 478.803 687.659 479.335 688.117 479.911L682.61 486.657L670.921 498.177L670.636 498.354C664.528 502.242 659.273 507.592 653.263 511.699C630.379 527.336 605.183 539.473 578.264 546.327L553.962 551.494C549.914 552.186 545.795 552.499 541.716 552.957C540.562 553.087 538.407 553.067 537.396 553.503C536.529 553.876 534.68 556.407 533.871 557.187C530.058 560.867 522.341 562.422 517.29 561.327L516.875 561.23L516.308 561.104C513.153 560.372 508.454 558.699 506.409 556.071C500.525 558.25 493.878 559.653 487.729 560.964L486.46 561.241C484.503 560.089 481.899 559.764 479.694 559.251L470.778 556.879C462.135 554.355 453.54 551.637 445.18 548.274C437.307 545.108 429.474 541.762 422.04 537.653C409.275 530.595 397.956 521.954 387.273 512.061C385.309 510.243 380.684 506.895 379.674 504.52L380.374 504.434L380.454 504.112L380.55 503.64L380.669 503.118C381.039 499.944 377.231 495.837 375.589 493.299Z" fill="#062161"/>
<path d="M541.127 538.495C543.942 537.329 548.701 538.894 551.75 538.984L583.01 539.188L583.999 539.848L539.933 548.555C540.802 545.083 541.192 542.08 541.127 538.495Z" fill="#E5001F"/>
<path d="M528.169 527.824C531.753 529.639 534.268 532.741 535.564 536.563C536.936 540.606 536.618 544.756 534.687 548.575C532.962 551.989 529.518 555.047 525.875 556.215L523.625 556.685L523.035 556.785C521.466 557.034 520.125 556.927 518.562 556.712L518.055 556.646C514.773 556.184 511.728 554.452 509.481 552.044C512.379 552.082 515.602 551.83 518.376 550.934C522.84 549.493 525.972 546.808 528.076 542.632C530.678 537.467 529.929 533.092 528.169 527.824Z" fill="#7B4905"/>
<path d="M509.482 552.044C507.847 550.567 506.46 548.653 505.886 546.506C504.715 542.132 505.261 537.04 507.66 533.17C509.83 529.671 513.672 526.918 517.701 526.028C521.065 525.284 525.265 526.045 528.169 527.824C529.929 533.092 530.678 537.467 528.076 542.632C525.973 546.808 522.84 549.493 518.377 550.934C515.602 551.83 512.379 552.082 509.482 552.044Z" fill="#E4B447"/>
<path d="M379.674 504.52L380.374 504.434C387.531 509.592 394.157 515.47 401.482 520.411C422.633 534.679 447.624 543.697 472.351 549.343C478.938 550.848 485.84 552.004 492.555 552.729L501.223 553.435C502.033 553.489 503.577 553.377 504.312 553.621C505.028 553.86 505.97 555.446 506.409 556.072C500.525 558.25 493.878 559.653 487.729 560.965L486.46 561.241C484.503 560.089 481.899 559.764 479.694 559.252L470.778 556.879C462.135 554.356 453.54 551.638 445.18 548.275C437.307 545.108 429.474 541.762 422.04 537.653C409.275 530.595 397.956 521.954 387.273 512.061C385.309 510.243 380.684 506.895 379.674 504.52Z" fill="#E4B447"/>
<path d="M366.103 463.139L374.217 471.642C379.904 477.344 385.72 482.587 392.104 487.507C419.02 508.252 454.184 520.192 487.535 524.963C493.645 525.837 499.474 526.768 505.655 527.136C505.412 528.519 503.755 530.227 503.057 531.529C501.789 533.891 501.163 536.497 500.826 539.142L493.01 537.839C484.699 536.293 476.737 533.953 468.655 531.529C452.611 526.714 436.894 520.927 422.11 512.982C412.792 507.975 403.961 502.037 395.416 495.82C385.407 488.539 375.735 480.572 368.779 470.188C367.336 468.031 365.611 465.74 366.103 463.139Z" fill="#A71311"/>
<path d="M375.589 493.299C370.027 486.909 364.151 480.01 363.296 471.276C362.886 467.084 362.907 462.926 362.232 458.751L366.15 462.738L366.103 463.139C365.61 465.74 367.335 468.031 368.779 470.187C375.735 480.572 385.407 488.539 395.415 495.82C403.961 502.037 412.792 507.975 422.11 512.982C436.893 520.926 452.611 526.714 468.654 531.528C476.736 533.953 484.698 536.292 493.01 537.839L500.826 539.142C500.735 540.571 500.664 541.974 500.828 543.401C500.966 544.602 501.771 547.538 501.424 548.504C463.902 545.237 425.439 532.401 394.911 510.004C387.946 504.894 382.017 498.991 375.589 493.299Z" fill="#E5001F"/>
<path d="M671.555 467.184L686.364 478.303L669.502 493.809C650.515 509.674 629.408 522.622 606.495 531.973C599.101 534.99 591.73 537.794 583.999 539.848L583.01 539.188L551.75 538.984C548.701 538.894 543.942 537.329 541.127 538.495C540.498 534.251 538.083 530.529 535.735 527.05C546.59 526.112 557.385 525.064 568.1 523.014C597.034 517.479 626.059 505.978 649.672 488.202C653.298 485.473 656.942 482.536 660.052 479.222C663.573 475.469 667.058 470.267 671.247 467.386L671.555 467.184Z" fill="#A71311"/>
<defs>
<linearGradient id="paint0_linear_102_103" x1="718.142" y1="799.048" x2="676.512" y2="681.698" gradientUnits="userSpaceOnUse">
<stop stop-color="#F4A00D"/>
<stop offset="1" stop-color="#FFC60E"/>
</linearGradient>
<linearGradient id="paint1_linear_102_103" x1="523.009" y1="678.012" x2="523.071" y2="684.187" gradientUnits="userSpaceOnUse">
<stop stop-color="#F8D57B"/>
<stop offset="1" stop-color="#F1EA94"/>
</linearGradient>
</defs>
</svg>
